G04 PROTEUS RS274X GERBER FILE*
%FSLAX26Y26*%
%MOIN*%
G01*
%ADD10C,0.070000*%
%ADD11C,0.030000*%
%ADD12C,0.010000*%
%ADD13R,0.080000X0.080000*%
%ADD14C,0.090000*%
%ADD15R,0.120000X0.120000*%
%ADD16R,0.050394X0.050394*%
%ADD17C,0.010000*%
%ADD18C,0.050394*%
%ADD19C,0.070000*%
%ADD70C,0.008000*%
%TD.AperFunction*%
G36*
X+50063Y+1015000D02*
X+112279Y+1015000D01*
X+120000Y+1007278D01*
X+120000Y+1083741D01*
X+50063Y+1083741D01*
X+50063Y+1015000D01*
G37*
G36*
X+2027169Y+977169D02*
X+2033100Y+971237D01*
X+2041863Y+980000D01*
X+2108137Y+980000D01*
X+2155000Y+933137D01*
X+2155000Y+866863D01*
X+2108137Y+820000D01*
X+2050600Y+820000D01*
X+2050600Y+543624D01*
X+2057556Y+550581D01*
X+2057556Y+653230D01*
X+2097500Y+693174D01*
X+2097500Y+749779D01*
X+2150221Y+802500D01*
X+2224779Y+802500D01*
X+2277500Y+749779D01*
X+2277500Y+702500D01*
X+2299779Y+702500D01*
X+2352500Y+649779D01*
X+2352500Y+602500D01*
X+2374779Y+602500D01*
X+2427500Y+549779D01*
X+2427500Y+475221D01*
X+2417499Y+465220D01*
X+2417499Y+457992D01*
X+2310685Y+351178D01*
X+2310685Y+282165D01*
X+2335453Y+282165D01*
X+2335453Y+312604D01*
X+2360349Y+337500D01*
X+2395557Y+337500D01*
X+2420453Y+312604D01*
X+2420453Y+282165D01*
X+2595494Y+282165D01*
X+2597419Y+284089D01*
X+2637806Y+284089D01*
X+2637806Y+395000D01*
X+2604658Y+395000D01*
X+2594855Y+404804D01*
X+2567599Y+404804D01*
X+2567599Y+432060D01*
X+2561966Y+437693D01*
X+2529076Y+404804D01*
X+2470924Y+404804D01*
X+2429804Y+445924D01*
X+2429804Y+504076D01*
X+2470924Y+545196D01*
X+2529076Y+545196D01*
X+2557796Y+516477D01*
X+2557796Y+603383D01*
X+2395000Y+766179D01*
X+2395000Y+914229D01*
X+2247635Y+914229D01*
X+2116851Y+1045013D01*
X+2116851Y+1083741D01*
X+1920596Y+1083741D01*
X+2027169Y+977169D01*
G37*
G36*
X+881850Y+1101365D02*
X+945000Y+1038215D01*
X+945000Y+1015000D01*
X+1012279Y+1015000D01*
X+1065000Y+962279D01*
X+1065000Y+915000D01*
X+1087279Y+915000D01*
X+1100528Y+901751D01*
X+1112129Y+898745D01*
X+1118884Y+883394D01*
X+1140000Y+862279D01*
X+1140000Y+815000D01*
X+1162279Y+815000D01*
X+1200000Y+777279D01*
X+1215000Y+792279D01*
X+1215000Y+852279D01*
X+1267721Y+905000D01*
X+1342279Y+905000D01*
X+1395000Y+852279D01*
X+1395000Y+838137D01*
X+1509167Y+723970D01*
X+1509167Y+658136D01*
X+1574158Y+593145D01*
X+1574158Y+585720D01*
X+1658486Y+501393D01*
X+1658486Y+339091D01*
X+1644454Y+325059D01*
X+1644454Y+282165D01*
X+1764028Y+282165D01*
X+1827292Y+345429D01*
X+1797500Y+375221D01*
X+1797500Y+422500D01*
X+1775221Y+422500D01*
X+1722500Y+475221D01*
X+1722500Y+522500D01*
X+1700221Y+522500D01*
X+1647500Y+575221D01*
X+1647500Y+622500D01*
X+1625221Y+622500D01*
X+1572500Y+675221D01*
X+1572500Y+749779D01*
X+1575265Y+752544D01*
X+1316851Y+1010958D01*
X+1316851Y+1083741D01*
X+911851Y+1083741D01*
X+911851Y+1174307D01*
X+881850Y+1174307D01*
X+881850Y+1101365D01*
G37*
G36*
X+50063Y+49000D02*
X+2618420Y+49000D01*
X+2595254Y+72166D01*
X+335945Y+72166D01*
X+335945Y+282165D01*
X+379973Y+282165D01*
X+418752Y+320944D01*
X+418752Y+575633D01*
X+398771Y+595614D01*
X+406724Y+587665D01*
X+391266Y+603128D01*
X+390000Y+604400D01*
X+390000Y+587721D01*
X+337279Y+535000D01*
X+262721Y+535000D01*
X+210000Y+587721D01*
X+210000Y+635000D01*
X+187721Y+635000D01*
X+135000Y+687721D01*
X+135000Y+735000D01*
X+112721Y+735000D01*
X+60000Y+787721D01*
X+60000Y+835000D01*
X+50063Y+835000D01*
X+50063Y+49000D01*
G37*
G36*
X+2796614Y+1092491D02*
X+2801605Y+1087500D01*
X+2865637Y+1087500D01*
X+2912500Y+1040637D01*
X+2912500Y+974363D01*
X+2865637Y+927500D01*
X+2735332Y+927500D01*
X+2715959Y+946873D01*
X+2715959Y+899340D01*
X+2877806Y+737493D01*
X+2877806Y+396226D01*
X+2918441Y+355590D01*
X+2920566Y+355590D01*
X+2938693Y+337464D01*
X+2985555Y+290601D01*
X+2985555Y+64780D01*
X+2969774Y+49000D01*
X+2996000Y+49000D01*
X+2996000Y+342780D01*
X+2983406Y+330185D01*
X+2948198Y+330185D01*
X+2923302Y+355081D01*
X+2923302Y+390289D01*
X+2948198Y+415185D01*
X+2983406Y+415185D01*
X+2996000Y+402591D01*
X+2996000Y+1076418D01*
X+2887441Y+1076418D01*
X+2887441Y+1174307D01*
X+2796614Y+1174307D01*
X+2796614Y+1092491D01*
G37*
G36*
X+897428Y+477440D02*
X+873996Y+454008D01*
X+773116Y+454008D01*
X+738749Y+419641D01*
X+738749Y+337739D01*
X+748014Y+328474D01*
X+794323Y+282165D01*
X+916063Y+282165D01*
X+916063Y+308137D01*
X+947163Y+339237D01*
X+947163Y+527175D01*
X+897428Y+477440D01*
G37*
G36*
X+1187161Y+282165D02*
X+1329449Y+282165D01*
X+1329449Y+328711D01*
X+1187161Y+470998D01*
X+1187161Y+282165D01*
G37*
G36*
X+50063Y+2281259D02*
X+112279Y+2281259D01*
X+120000Y+2273538D01*
X+120000Y+2350000D01*
X+50063Y+2350000D01*
X+50063Y+2281259D01*
G37*
G36*
X+2027169Y+2243428D02*
X+2033100Y+2237496D01*
X+2041863Y+2246259D01*
X+2108137Y+2246259D01*
X+2155000Y+2199396D01*
X+2155000Y+2133122D01*
X+2108137Y+2086260D01*
X+2050600Y+2086260D01*
X+2050600Y+1809884D01*
X+2057556Y+1816840D01*
X+2057556Y+1919489D01*
X+2097500Y+1959433D01*
X+2097500Y+2016039D01*
X+2150221Y+2068759D01*
X+2224779Y+2068759D01*
X+2277500Y+2016039D01*
X+2277500Y+1968759D01*
X+2299779Y+1968759D01*
X+2352500Y+1916039D01*
X+2352500Y+1868759D01*
X+2374779Y+1868759D01*
X+2427500Y+1816039D01*
X+2427500Y+1741480D01*
X+2417499Y+1731480D01*
X+2417499Y+1724252D01*
X+2310685Y+1617437D01*
X+2310685Y+1548424D01*
X+2335453Y+1548424D01*
X+2335453Y+1578863D01*
X+2360349Y+1603759D01*
X+2395557Y+1603759D01*
X+2420453Y+1578863D01*
X+2420453Y+1548424D01*
X+2595494Y+1548424D01*
X+2597419Y+1550349D01*
X+2637806Y+1550349D01*
X+2637806Y+1661260D01*
X+2604658Y+1661260D01*
X+2594855Y+1671063D01*
X+2567599Y+1671063D01*
X+2567599Y+1698319D01*
X+2561966Y+1703952D01*
X+2529076Y+1671063D01*
X+2470924Y+1671063D01*
X+2429804Y+1712183D01*
X+2429804Y+1770336D01*
X+2470924Y+1811456D01*
X+2529076Y+1811456D01*
X+2557796Y+1782737D01*
X+2557796Y+1869643D01*
X+2395000Y+2032438D01*
X+2395000Y+2180488D01*
X+2247635Y+2180488D01*
X+2116851Y+2311272D01*
X+2116851Y+2350000D01*
X+1920596Y+2350000D01*
X+2027169Y+2243428D01*
G37*
G36*
X+881850Y+2367624D02*
X+945000Y+2304475D01*
X+945000Y+2281259D01*
X+1012279Y+2281259D01*
X+1065000Y+2228539D01*
X+1065000Y+2181259D01*
X+1087279Y+2181259D01*
X+1100528Y+2168010D01*
X+1112129Y+2165004D01*
X+1118884Y+2149654D01*
X+1140000Y+2128539D01*
X+1140000Y+2081259D01*
X+1162279Y+2081259D01*
X+1200000Y+2043538D01*
X+1215000Y+2058539D01*
X+1215000Y+2118539D01*
X+1267721Y+2171259D01*
X+1342279Y+2171259D01*
X+1395000Y+2118539D01*
X+1395000Y+2104396D01*
X+1509167Y+1990230D01*
X+1509167Y+1924396D01*
X+1574158Y+1859404D01*
X+1574158Y+1851980D01*
X+1658486Y+1767652D01*
X+1658486Y+1605350D01*
X+1644454Y+1591318D01*
X+1644454Y+1548424D01*
X+1764028Y+1548424D01*
X+1827292Y+1611688D01*
X+1797500Y+1641480D01*
X+1797500Y+1688760D01*
X+1775221Y+1688760D01*
X+1722500Y+1741480D01*
X+1722500Y+1788760D01*
X+1700221Y+1788760D01*
X+1647500Y+1841480D01*
X+1647500Y+1888760D01*
X+1625221Y+1888760D01*
X+1572500Y+1941480D01*
X+1572500Y+2016039D01*
X+1575265Y+2018803D01*
X+1316851Y+2277217D01*
X+1316851Y+2350000D01*
X+911851Y+2350000D01*
X+911851Y+2440567D01*
X+881850Y+2440567D01*
X+881850Y+2367624D01*
G37*
G36*
X+50063Y+1315259D02*
X+2618420Y+1315259D01*
X+2595254Y+1338425D01*
X+335945Y+1338425D01*
X+335945Y+1548424D01*
X+379973Y+1548424D01*
X+418752Y+1587203D01*
X+418752Y+1841893D01*
X+398771Y+1861874D01*
X+406725Y+1853924D01*
X+391266Y+1869387D01*
X+390000Y+1870660D01*
X+390000Y+1853980D01*
X+337279Y+1801260D01*
X+262721Y+1801260D01*
X+210000Y+1853980D01*
X+210000Y+1901260D01*
X+187721Y+1901260D01*
X+135000Y+1953980D01*
X+135000Y+2001260D01*
X+112721Y+2001260D01*
X+60000Y+2053980D01*
X+60000Y+2101260D01*
X+50063Y+2101260D01*
X+50063Y+1315259D01*
G37*
G36*
X+2796614Y+2358750D02*
X+2801605Y+2353759D01*
X+2865637Y+2353759D01*
X+2912500Y+2306896D01*
X+2912500Y+2240622D01*
X+2865637Y+2193760D01*
X+2735332Y+2193760D01*
X+2715959Y+2213133D01*
X+2715959Y+2165599D01*
X+2877806Y+2003753D01*
X+2877806Y+1662485D01*
X+2918441Y+1621850D01*
X+2920566Y+1621850D01*
X+2938693Y+1603723D01*
X+2985555Y+1556861D01*
X+2985555Y+1331040D01*
X+2969774Y+1315259D01*
X+2996000Y+1315259D01*
X+2996000Y+1609039D01*
X+2983406Y+1596445D01*
X+2948198Y+1596445D01*
X+2923302Y+1621341D01*
X+2923302Y+1656549D01*
X+2948198Y+1681445D01*
X+2983406Y+1681445D01*
X+2996000Y+1668851D01*
X+2996000Y+2342677D01*
X+2887441Y+2342677D01*
X+2887441Y+2440567D01*
X+2796614Y+2440567D01*
X+2796614Y+2358750D01*
G37*
G36*
X+897428Y+1743699D02*
X+873996Y+1720268D01*
X+773116Y+1720268D01*
X+738749Y+1685901D01*
X+738749Y+1603998D01*
X+748014Y+1594734D01*
X+794323Y+1548424D01*
X+916063Y+1548424D01*
X+916063Y+1574396D01*
X+947163Y+1605496D01*
X+947163Y+1793435D01*
X+897428Y+1743699D01*
G37*
G36*
X+1187161Y+1548424D02*
X+1329449Y+1548424D01*
X+1329449Y+1594970D01*
X+1187161Y+1737258D01*
X+1187161Y+1548424D01*
G37*
G36*
X+50063Y+3581259D02*
X+112279Y+3581259D01*
X+120000Y+3573538D01*
X+120000Y+3650000D01*
X+50063Y+3650000D01*
X+50063Y+3581259D01*
G37*
G36*
X+2027169Y+3543428D02*
X+2033100Y+3537496D01*
X+2041863Y+3546259D01*
X+2108137Y+3546259D01*
X+2155000Y+3499396D01*
X+2155000Y+3433122D01*
X+2108137Y+3386260D01*
X+2050600Y+3386260D01*
X+2050600Y+3109884D01*
X+2057556Y+3116840D01*
X+2057556Y+3219489D01*
X+2097500Y+3259433D01*
X+2097500Y+3316039D01*
X+2150221Y+3368759D01*
X+2224779Y+3368759D01*
X+2277500Y+3316039D01*
X+2277500Y+3268759D01*
X+2299779Y+3268759D01*
X+2352500Y+3216039D01*
X+2352500Y+3168759D01*
X+2374779Y+3168759D01*
X+2427500Y+3116039D01*
X+2427500Y+3041480D01*
X+2417499Y+3031480D01*
X+2417499Y+3024252D01*
X+2310685Y+2917437D01*
X+2310685Y+2848424D01*
X+2335453Y+2848424D01*
X+2335453Y+2878863D01*
X+2360349Y+2903759D01*
X+2395557Y+2903759D01*
X+2420453Y+2878863D01*
X+2420453Y+2848424D01*
X+2595494Y+2848424D01*
X+2597419Y+2850349D01*
X+2637806Y+2850349D01*
X+2637806Y+2961260D01*
X+2604658Y+2961260D01*
X+2594855Y+2971063D01*
X+2567599Y+2971063D01*
X+2567599Y+2998319D01*
X+2561966Y+3003952D01*
X+2529076Y+2971063D01*
X+2470924Y+2971063D01*
X+2429804Y+3012183D01*
X+2429804Y+3070336D01*
X+2470924Y+3111456D01*
X+2529076Y+3111456D01*
X+2557796Y+3082737D01*
X+2557796Y+3169643D01*
X+2395000Y+3332438D01*
X+2395000Y+3480488D01*
X+2247635Y+3480488D01*
X+2116851Y+3611272D01*
X+2116851Y+3650000D01*
X+1920596Y+3650000D01*
X+2027169Y+3543428D01*
G37*
G36*
X+881850Y+3667624D02*
X+945000Y+3604475D01*
X+945000Y+3581259D01*
X+1012279Y+3581259D01*
X+1065000Y+3528539D01*
X+1065000Y+3481259D01*
X+1087279Y+3481259D01*
X+1100528Y+3468010D01*
X+1112129Y+3465004D01*
X+1118884Y+3449654D01*
X+1140000Y+3428539D01*
X+1140000Y+3381259D01*
X+1162279Y+3381259D01*
X+1200000Y+3343538D01*
X+1215000Y+3358539D01*
X+1215000Y+3418539D01*
X+1267721Y+3471259D01*
X+1342279Y+3471259D01*
X+1395000Y+3418539D01*
X+1395000Y+3404396D01*
X+1509167Y+3290230D01*
X+1509167Y+3224396D01*
X+1574158Y+3159404D01*
X+1574158Y+3151980D01*
X+1658486Y+3067652D01*
X+1658486Y+2905350D01*
X+1644454Y+2891318D01*
X+1644454Y+2848424D01*
X+1764028Y+2848424D01*
X+1827292Y+2911688D01*
X+1797500Y+2941480D01*
X+1797500Y+2988760D01*
X+1775221Y+2988760D01*
X+1722500Y+3041480D01*
X+1722500Y+3088760D01*
X+1700221Y+3088760D01*
X+1647500Y+3141480D01*
X+1647500Y+3188760D01*
X+1625221Y+3188760D01*
X+1572500Y+3241480D01*
X+1572500Y+3316039D01*
X+1575265Y+3318803D01*
X+1316851Y+3577217D01*
X+1316851Y+3650000D01*
X+911851Y+3650000D01*
X+911851Y+3740567D01*
X+881850Y+3740567D01*
X+881850Y+3667624D01*
G37*
G36*
X+50063Y+2615259D02*
X+2618420Y+2615259D01*
X+2595254Y+2638425D01*
X+335945Y+2638425D01*
X+335945Y+2848424D01*
X+379973Y+2848424D01*
X+418752Y+2887203D01*
X+418752Y+3141893D01*
X+398771Y+3161874D01*
X+406725Y+3153924D01*
X+391266Y+3169387D01*
X+390000Y+3170660D01*
X+390000Y+3153980D01*
X+337279Y+3101260D01*
X+262721Y+3101260D01*
X+210000Y+3153980D01*
X+210000Y+3201260D01*
X+187721Y+3201260D01*
X+135000Y+3253980D01*
X+135000Y+3301260D01*
X+112721Y+3301260D01*
X+60000Y+3353980D01*
X+60000Y+3401260D01*
X+50063Y+3401260D01*
X+50063Y+2615259D01*
G37*
G36*
X+2796614Y+3658750D02*
X+2801605Y+3653759D01*
X+2865637Y+3653759D01*
X+2912500Y+3606896D01*
X+2912500Y+3540622D01*
X+2865637Y+3493760D01*
X+2735332Y+3493760D01*
X+2715959Y+3513133D01*
X+2715959Y+3465599D01*
X+2877806Y+3303753D01*
X+2877806Y+2962485D01*
X+2918441Y+2921850D01*
X+2920566Y+2921850D01*
X+2938693Y+2903723D01*
X+2985555Y+2856861D01*
X+2985555Y+2631040D01*
X+2969774Y+2615259D01*
X+2996000Y+2615259D01*
X+2996000Y+2909039D01*
X+2983406Y+2896445D01*
X+2948198Y+2896445D01*
X+2923302Y+2921341D01*
X+2923302Y+2956549D01*
X+2948198Y+2981445D01*
X+2983406Y+2981445D01*
X+2996000Y+2968851D01*
X+2996000Y+3642677D01*
X+2887441Y+3642677D01*
X+2887441Y+3740567D01*
X+2796614Y+3740567D01*
X+2796614Y+3658750D01*
G37*
G36*
X+897428Y+3043699D02*
X+873996Y+3020268D01*
X+773116Y+3020268D01*
X+738749Y+2985901D01*
X+738749Y+2903998D01*
X+748014Y+2894734D01*
X+794323Y+2848424D01*
X+916063Y+2848424D01*
X+916063Y+2874396D01*
X+947163Y+2905496D01*
X+947163Y+3093435D01*
X+897428Y+3043699D01*
G37*
G36*
X+1187161Y+2848424D02*
X+1329449Y+2848424D01*
X+1329449Y+2894970D01*
X+1187161Y+3037258D01*
X+1187161Y+2848424D01*
G37*
D10*
X+1887500Y+412500D02*
X+1887500Y+437293D01*
X+1937500Y+487293D01*
X+1937500Y+512500D01*
X+1812500Y+512500D02*
X+1858074Y+558074D01*
X+1858074Y+608074D01*
X+1862500Y+612500D01*
X+1737500Y+612500D02*
X+1783540Y+658540D01*
X+1783540Y+708540D01*
X+1787500Y+712500D01*
X+1262500Y+712500D02*
X+1337500Y+637500D01*
X+1337500Y+612500D01*
X+1337500Y+587500D01*
X+1412500Y+512500D01*
X+1487500Y+437500D01*
X+1487500Y+412500D01*
X+2337500Y+512500D02*
X+2337500Y+491129D01*
X+2230685Y+384315D01*
X+2230685Y+167068D01*
X+2234579Y+163174D01*
X+2240157Y+177165D01*
X+1125000Y+725000D02*
X+1125000Y+676923D01*
X+1107162Y+659085D01*
X+1107162Y+203862D01*
X+1133858Y+177165D01*
X+75000Y+925000D02*
X+75000Y+900000D01*
X+150000Y+825000D01*
X+150000Y+790000D01*
X+180000Y+760000D01*
X+225000Y+725000D01*
X+225000Y+700000D01*
X+300000Y+625000D01*
X+996063Y+275000D02*
X+996063Y+177165D01*
X+1050000Y+825000D02*
X+1034018Y+809018D01*
X+996063Y+275000D02*
X+1027163Y+306100D01*
X+1027163Y+480000D01*
X+1027163Y+812163D01*
X+1047778Y+832778D01*
X+1050000Y+825000D01*
X+596850Y+1168740D02*
X+596850Y+1060000D01*
X+575000Y+925000D02*
X+495000Y+925000D01*
X+485000Y+935000D01*
X+475000Y+925000D01*
X+496850Y+1168740D02*
X+496850Y+946850D01*
X+485000Y+935000D01*
X+650000Y+825000D02*
X+550000Y+825000D01*
X+725000Y+725000D02*
X+619444Y+725000D01*
X+615833Y+728611D01*
X+625000Y+725000D01*
X+800000Y+625000D02*
X+700000Y+625000D01*
X+2377953Y+177165D02*
X+2377953Y+51047D01*
X+2380000Y+49000D01*
X+2090000Y+49000D02*
X+2090000Y+164803D01*
X+2102362Y+177165D01*
X+2090000Y+49000D02*
X+2380000Y+49000D01*
X+1675000Y+49000D02*
X+1675000Y+163189D01*
X+1688976Y+177165D01*
X+1675000Y+49000D02*
X+2090000Y+49000D01*
X+1688976Y+177165D02*
X+1694306Y+182494D01*
X+1694306Y+186250D01*
X+1271654Y+177165D02*
X+1271654Y+65653D01*
X+1255000Y+49000D01*
X+1675000Y+49000D01*
X+850000Y+49000D02*
X+298223Y+49000D01*
X+283889Y+63333D01*
X+283889Y+608889D01*
X+300000Y+625000D01*
X+858268Y+177165D02*
X+858268Y+57267D01*
X+850000Y+49000D01*
X+1255000Y+49000D01*
X+1578487Y+405000D02*
X+1578487Y+468256D01*
X+1494204Y+552538D01*
X+1494158Y+552584D01*
X+1494158Y+560008D01*
X+1429167Y+625000D01*
X+1429167Y+690833D01*
X+1317500Y+802500D01*
X+1305000Y+815000D02*
X+1317500Y+802500D01*
X+1578487Y+405000D02*
X+1578487Y+372227D01*
X+1564455Y+358195D01*
X+1564455Y+237165D01*
X+1547244Y+177165D01*
X+1584060Y+665940D02*
X+1584060Y+577050D01*
X+1688976Y+472134D01*
X+1688976Y+177165D01*
X+1262500Y+712500D02*
X+1262500Y+722222D01*
X+1210000Y+774722D01*
X+1210000Y+853055D01*
X+1263568Y+906623D01*
X+1343377Y+906623D01*
X+1584060Y+665940D01*
X+1583931Y+665811D01*
X+1583931Y+652180D01*
X+2096850Y+1168740D02*
X+1996850Y+1168740D01*
X+2652323Y+182323D02*
X+2657480Y+177165D01*
X+2652323Y+182323D02*
X+2630556Y+204090D01*
X+2100000Y+1025000D02*
X+2100000Y+1165591D01*
X+2096850Y+1168740D01*
X+2075000Y+900000D02*
X+2100000Y+900000D01*
X+2117009Y+917009D01*
X+2500000Y+475000D02*
X+2425000Y+550000D01*
X+2425000Y+562428D01*
X+2349987Y+637441D01*
X+2349987Y+653687D01*
X+2280592Y+723083D01*
X+2280592Y+753427D01*
X+2117009Y+917009D01*
X+2100000Y+934019D01*
X+2100000Y+1025000D01*
X+2549657Y+724657D02*
X+2475000Y+799315D01*
X+2475000Y+900000D01*
X+2549657Y+724657D02*
X+2637795Y+636520D01*
X+2637795Y+475000D01*
X+330000Y+1035000D02*
X+330000Y+916301D01*
X+531522Y+714779D01*
X+531522Y+689130D01*
X+578740Y+641911D01*
X+578740Y+177165D01*
X+1705000Y+755630D02*
X+1705000Y+755000D01*
X+1662500Y+712500D01*
X+1705000Y+815000D02*
X+1705000Y+755630D01*
X+1396850Y+1168740D02*
X+1396850Y+1044094D01*
X+1685315Y+755630D01*
X+1705000Y+755630D01*
X+1496850Y+1168740D02*
X+1496850Y+1062204D01*
X+1652222Y+906833D01*
X+1752484Y+906833D01*
X+1804244Y+855072D01*
X+1804244Y+729244D01*
X+1787500Y+712500D01*
X+1596850Y+1168740D02*
X+1596850Y+1080315D01*
X+1685447Y+991719D01*
X+1780710Y+991719D01*
X+1884989Y+887439D01*
X+1884989Y+634989D01*
X+1862500Y+612500D01*
X+1696850Y+1168740D02*
X+1696850Y+1098425D01*
X+1720276Y+1075000D01*
X+1816201Y+1075000D01*
X+1970600Y+920600D01*
X+1970600Y+545600D01*
X+1937500Y+512500D01*
X+596850Y+1060000D02*
X+596850Y+1041191D01*
X+596850Y+1037008D01*
X+670000Y+963858D01*
X+670000Y+855000D01*
X+643611Y+828611D01*
X+650000Y+825000D01*
X+725000Y+725000D02*
X+780000Y+780000D01*
X+780000Y+971969D01*
X+696850Y+1055118D01*
X+696850Y+1168740D01*
X+796850Y+1168740D02*
X+796850Y+1073228D01*
X+865000Y+1005079D01*
X+865000Y+690000D01*
X+800000Y+625000D01*
X+2440945Y+994228D02*
X+2495370Y+994228D01*
X+2555964Y+933635D01*
X+2555964Y+835008D01*
X+2554993Y+834038D01*
X+2717806Y+671226D01*
X+2717806Y+551181D01*
X+2717806Y+305027D01*
X+2795276Y+227557D01*
X+2795276Y+177165D01*
X+2196850Y+1168740D02*
X+2196850Y+1078150D01*
X+2280772Y+994228D01*
X+2440945Y+994228D01*
X+2875240Y+285655D02*
X+2885304Y+275591D01*
X+2905556Y+255339D01*
X+2905556Y+157480D01*
X+2905556Y+137795D01*
X+2905556Y+255339D02*
X+2905556Y+257464D01*
X+2905556Y+137795D02*
X+2905556Y+97917D01*
X+2876389Y+68750D01*
X+2711806Y+68750D01*
X+2652323Y+128233D01*
X+2652323Y+182323D01*
X+2905556Y+257464D02*
X+2887429Y+275591D01*
X+2885304Y+275591D01*
X+2884036Y+275591D01*
X+2875240Y+284387D01*
X+2875240Y+285655D01*
X+2832500Y+1007500D02*
X+2768469Y+1007500D01*
X+2710046Y+1065922D01*
X+2710046Y+1166070D01*
X+2711614Y+1167638D01*
X+2335000Y+1074220D02*
X+2296850Y+1112370D01*
X+2296850Y+1168740D01*
X+2875240Y+285655D02*
X+2797806Y+363089D01*
X+2797806Y+704357D01*
X+2635959Y+866203D01*
X+2635959Y+966761D01*
X+2528500Y+1074220D01*
X+2335000Y+1074220D01*
X+2325780Y+1074220D01*
X+2965802Y+372685D02*
X+2972441Y+379324D01*
X+2972441Y+435000D01*
X+2377953Y+177165D02*
X+2377953Y+295000D01*
X+2377953Y+352953D01*
X+2500000Y+475000D01*
X+2972441Y+1161417D02*
X+2972441Y+435000D01*
X+2972441Y+379324D02*
X+2972441Y+313545D01*
X+2990000Y+295986D01*
X+2179115Y+445885D02*
X+2148642Y+415412D01*
X+2148642Y+415411D01*
X+1964567Y+227243D02*
X+1964567Y+205000D01*
X+1964567Y+177165D02*
X+1964567Y+205000D01*
X+2148642Y+415411D02*
X+2148642Y+415412D01*
X+2179115Y+445885D01*
X+2245000Y+511770D01*
X+2245000Y+595000D01*
X+2262500Y+612500D01*
X+2187500Y+700000D02*
X+2187500Y+670037D01*
X+2187500Y+670037D01*
X+2137556Y+620093D01*
X+2137556Y+517444D01*
X+1910112Y+290000D01*
X+1885000Y+290000D01*
X+1826772Y+231772D01*
X+1826111Y+231111D01*
X+1826111Y+164259D01*
X+2187500Y+712500D02*
X+2187500Y+700000D01*
X+2187500Y+670037D01*
X+2187500Y+670037D01*
X+1826772Y+231772D02*
X+1826772Y+177165D01*
X+2016162Y+278838D02*
X+2022496Y+285172D01*
X+2148642Y+411318D01*
X+2160425Y+423102D01*
X+2160425Y+427174D01*
X+2165051Y+431800D01*
X+2148642Y+415411D02*
X+2148642Y+411318D01*
X+2016162Y+278838D02*
X+1964567Y+227243D01*
X+947181Y+740000D02*
X+947181Y+640330D01*
X+975000Y+925000D02*
X+947181Y+897181D01*
X+947181Y+740000D01*
X+716535Y+177165D02*
X+716535Y+246816D01*
X+714877Y+248475D01*
X+686500Y+276852D01*
X+665738Y+276852D01*
X+658749Y+283841D01*
X+658749Y+452778D01*
X+739979Y+534008D01*
X+793359Y+534008D01*
X+793800Y+534008D01*
X+821358Y+534008D01*
X+947181Y+640330D02*
X+840859Y+534008D01*
X+821358Y+534008D01*
X+793800Y+534008D02*
X+793580Y+534228D01*
X+793359Y+534008D01*
X+714877Y+248475D02*
X+714877Y+178824D01*
X+716535Y+177165D01*
X+1200000Y+625000D02*
X+1258086Y+566914D01*
X+1258086Y+513210D01*
X+1409449Y+361847D01*
X+1409449Y+348483D01*
X+1409449Y+318519D01*
X+1409449Y+177165D01*
X+401304Y+706304D02*
X+440945Y+666619D01*
X+205000Y+1040000D02*
X+205000Y+902608D01*
X+401304Y+706304D01*
X+440945Y+666663D01*
X+440945Y+666619D01*
X+471266Y+636265D02*
X+471277Y+636253D01*
X+498752Y+608778D01*
X+498752Y+474383D01*
X+498752Y+287807D01*
X+440945Y+230000D01*
X+440000Y+229055D01*
X+440000Y+170000D01*
X+440945Y+230000D02*
X+440945Y+177165D01*
X+440945Y+666619D02*
X+471266Y+636265D01*
X+471277Y+636253D02*
X+478771Y+628751D01*
X+1887500Y+1678759D02*
X+1887500Y+1703553D01*
X+1937500Y+1753553D01*
X+1937500Y+1778759D01*
X+1812500Y+1778759D02*
X+1858074Y+1824334D01*
X+1858074Y+1874334D01*
X+1862500Y+1878759D01*
X+1737500Y+1878759D02*
X+1783540Y+1924800D01*
X+1783540Y+1974800D01*
X+1787500Y+1978759D01*
X+1262500Y+1978759D02*
X+1337500Y+1903759D01*
X+1337500Y+1878759D01*
X+1337500Y+1853759D01*
X+1412500Y+1778759D01*
X+1487500Y+1703759D01*
X+1487500Y+1678759D01*
X+2337500Y+1778759D02*
X+2337500Y+1757389D01*
X+2230685Y+1650574D01*
X+2230685Y+1433328D01*
X+2234579Y+1429434D01*
X+2240157Y+1443425D01*
X+1125000Y+1991259D02*
X+1125000Y+1943182D01*
X+1107162Y+1925344D01*
X+1107162Y+1470121D01*
X+1133858Y+1443425D01*
X+75000Y+2191259D02*
X+75000Y+2166259D01*
X+150000Y+2091259D01*
X+150000Y+2056259D01*
X+180000Y+2026259D01*
X+225000Y+1991259D01*
X+225000Y+1966259D01*
X+300000Y+1891259D01*
X+996063Y+1541259D02*
X+996063Y+1443425D01*
X+1050000Y+2091259D02*
X+1034018Y+2075278D01*
X+996063Y+1541259D02*
X+1027163Y+1572359D01*
X+1027163Y+1746259D01*
X+1027163Y+2078422D01*
X+1047778Y+2099037D01*
X+1050000Y+2091259D01*
X+596850Y+2435000D02*
X+596850Y+2326259D01*
X+575000Y+2191259D02*
X+495000Y+2191259D01*
X+485000Y+2201259D01*
X+475000Y+2191259D01*
X+496850Y+2435000D02*
X+496850Y+2213110D01*
X+485000Y+2201259D01*
X+650000Y+2091259D02*
X+550000Y+2091259D01*
X+725000Y+1991259D02*
X+619444Y+1991259D01*
X+615833Y+1994870D01*
X+625000Y+1991259D01*
X+800000Y+1891259D02*
X+700000Y+1891259D01*
X+2377953Y+1443425D02*
X+2377953Y+1317306D01*
X+2380000Y+1315259D01*
X+2090000Y+1315259D02*
X+2090000Y+1431063D01*
X+2102362Y+1443425D01*
X+2090000Y+1315259D02*
X+2380000Y+1315259D01*
X+1675000Y+1315259D02*
X+1675000Y+1429448D01*
X+1688976Y+1443425D01*
X+1675000Y+1315259D02*
X+2090000Y+1315259D01*
X+1688976Y+1443425D02*
X+1694306Y+1448754D01*
X+1694306Y+1452509D01*
X+1271654Y+1443425D02*
X+1271654Y+1331913D01*
X+1255000Y+1315259D01*
X+1675000Y+1315259D01*
X+850000Y+1315259D02*
X+298223Y+1315259D01*
X+283889Y+1329593D01*
X+283889Y+1875148D01*
X+300000Y+1891259D01*
X+858268Y+1443425D02*
X+858268Y+1323527D01*
X+850000Y+1315259D01*
X+1255000Y+1315259D01*
X+1578487Y+1671259D02*
X+1578487Y+1734515D01*
X+1494204Y+1818797D01*
X+1494158Y+1818843D01*
X+1494158Y+1826268D01*
X+1429167Y+1891259D01*
X+1429167Y+1957093D01*
X+1317500Y+2068759D01*
X+1305000Y+2081259D02*
X+1317500Y+2068759D01*
X+1578487Y+1671259D02*
X+1578487Y+1638487D01*
X+1564455Y+1624455D01*
X+1564455Y+1503425D01*
X+1547244Y+1443425D01*
X+1584060Y+1932199D02*
X+1584060Y+1843310D01*
X+1688976Y+1738394D01*
X+1688976Y+1443425D01*
X+1262500Y+1978759D02*
X+1262500Y+1988481D01*
X+1210000Y+2040981D01*
X+1210000Y+2119315D01*
X+1263568Y+2172883D01*
X+1343377Y+2172883D01*
X+1584060Y+1932199D01*
X+1583931Y+1932070D01*
X+1583931Y+1918439D01*
X+2096850Y+2435000D02*
X+1996850Y+2435000D01*
X+2652323Y+1448582D02*
X+2657480Y+1443425D01*
X+2652323Y+1448582D02*
X+2630556Y+1470350D01*
X+2100000Y+2291259D02*
X+2100000Y+2431850D01*
X+2096850Y+2435000D01*
X+2075000Y+2166259D02*
X+2100000Y+2166259D01*
X+2117009Y+2183269D01*
X+2500000Y+1741259D02*
X+2425000Y+1816259D01*
X+2425000Y+1828688D01*
X+2349987Y+1903700D01*
X+2349987Y+1919947D01*
X+2280592Y+1989343D01*
X+2280592Y+2019687D01*
X+2117009Y+2183269D01*
X+2100000Y+2200278D01*
X+2100000Y+2291259D01*
X+2549657Y+1990917D02*
X+2475000Y+2065575D01*
X+2475000Y+2166259D01*
X+2549657Y+1990917D02*
X+2637795Y+1902779D01*
X+2637795Y+1741259D01*
X+330000Y+2301259D02*
X+330000Y+2182560D01*
X+531522Y+1981039D01*
X+531522Y+1955389D01*
X+578740Y+1908171D01*
X+578740Y+1443425D01*
X+1705000Y+2021889D02*
X+1705000Y+2021259D01*
X+1662500Y+1978759D01*
X+1705000Y+2081259D02*
X+1705000Y+2021889D01*
X+1396850Y+2435000D02*
X+1396850Y+2310354D01*
X+1685315Y+2021889D01*
X+1705000Y+2021889D01*
X+1496850Y+2435000D02*
X+1496850Y+2328464D01*
X+1652222Y+2173092D01*
X+1752484Y+2173092D01*
X+1804244Y+2121332D01*
X+1804244Y+1995504D01*
X+1787500Y+1978759D01*
X+1596850Y+2435000D02*
X+1596850Y+2346574D01*
X+1685447Y+2257978D01*
X+1780710Y+2257978D01*
X+1884989Y+2153698D01*
X+1884989Y+1901249D01*
X+1862500Y+1878759D01*
X+1696850Y+2435000D02*
X+1696850Y+2364685D01*
X+1720276Y+2341259D01*
X+1816201Y+2341259D01*
X+1970600Y+2186860D01*
X+1970600Y+1811860D01*
X+1937500Y+1778759D01*
X+596850Y+2326259D02*
X+596850Y+2307450D01*
X+596850Y+2303267D01*
X+670000Y+2230118D01*
X+670000Y+2121259D01*
X+643611Y+2094870D01*
X+650000Y+2091259D01*
X+725000Y+1991259D02*
X+780000Y+2046259D01*
X+780000Y+2238228D01*
X+696850Y+2321378D01*
X+696850Y+2435000D01*
X+796850Y+2435000D02*
X+796850Y+2339488D01*
X+865000Y+2271338D01*
X+865000Y+1956259D01*
X+800000Y+1891259D01*
X+2440945Y+2260488D02*
X+2495370Y+2260488D01*
X+2555964Y+2199894D01*
X+2555964Y+2101268D01*
X+2554993Y+2100297D01*
X+2717806Y+1937485D01*
X+2717806Y+1817441D01*
X+2717806Y+1571286D01*
X+2795276Y+1493816D01*
X+2795276Y+1443425D01*
X+2196850Y+2435000D02*
X+2196850Y+2344409D01*
X+2280772Y+2260488D01*
X+2440945Y+2260488D01*
X+2875240Y+1551915D02*
X+2885304Y+1541850D01*
X+2905556Y+1521599D01*
X+2905556Y+1423740D01*
X+2905556Y+1404055D01*
X+2905556Y+1521599D02*
X+2905556Y+1523724D01*
X+2905556Y+1404055D02*
X+2905556Y+1364176D01*
X+2876389Y+1335009D01*
X+2711806Y+1335009D01*
X+2652323Y+1394492D01*
X+2652323Y+1448582D01*
X+2905556Y+1523724D02*
X+2887429Y+1541850D01*
X+2885304Y+1541850D01*
X+2884036Y+1541850D01*
X+2875240Y+1550646D01*
X+2875240Y+1551915D01*
X+2832500Y+2273759D02*
X+2768469Y+2273759D01*
X+2710046Y+2332181D01*
X+2710046Y+2432330D01*
X+2711614Y+2433897D01*
X+2335000Y+2340480D02*
X+2296850Y+2378630D01*
X+2296850Y+2435000D01*
X+2875240Y+1551915D02*
X+2797806Y+1629348D01*
X+2797806Y+1970616D01*
X+2635959Y+2132463D01*
X+2635959Y+2233021D01*
X+2528500Y+2340480D01*
X+2335000Y+2340480D01*
X+2325780Y+2340480D01*
X+2965802Y+1638945D02*
X+2972441Y+1645583D01*
X+2972441Y+1701259D01*
X+2377953Y+1443425D02*
X+2377953Y+1561259D01*
X+2377953Y+1619212D01*
X+2500000Y+1741259D01*
X+2972441Y+2427677D02*
X+2972441Y+1701259D01*
X+2972441Y+1645583D02*
X+2972441Y+1579804D01*
X+2990000Y+1562245D01*
X+2179115Y+1712144D02*
X+2148642Y+1681671D01*
X+2148642Y+1681671D01*
X+1964567Y+1493503D02*
X+1964567Y+1471259D01*
X+1964567Y+1443425D02*
X+1964567Y+1471259D01*
X+2148642Y+1681671D02*
X+2148642Y+1681671D01*
X+2179115Y+1712144D01*
X+2245000Y+1778029D01*
X+2245000Y+1861259D01*
X+2262500Y+1878759D01*
X+2187500Y+1966259D02*
X+2187500Y+1936297D01*
X+2187500Y+1936296D01*
X+2137556Y+1886352D01*
X+2137556Y+1783704D01*
X+1910112Y+1556259D01*
X+1885000Y+1556259D01*
X+1826772Y+1498031D01*
X+1826111Y+1497371D01*
X+1826111Y+1430519D01*
X+2187500Y+1978759D02*
X+2187500Y+1966259D01*
X+2187500Y+1936296D01*
X+2187500Y+1936297D01*
X+1826772Y+1498031D02*
X+1826772Y+1443425D01*
X+2016162Y+1545098D02*
X+2022496Y+1551431D01*
X+2148642Y+1677578D01*
X+2160425Y+1689361D01*
X+2160425Y+1693433D01*
X+2165051Y+1698059D01*
X+2148642Y+1681671D02*
X+2148642Y+1677578D01*
X+2016162Y+1545098D02*
X+1964567Y+1493503D01*
X+947181Y+2006259D02*
X+947181Y+1906589D01*
X+975000Y+2191259D02*
X+947181Y+2163441D01*
X+947181Y+2006259D01*
X+716535Y+1443425D02*
X+716535Y+1513076D01*
X+714877Y+1514734D01*
X+686500Y+1543111D01*
X+665738Y+1543111D01*
X+658749Y+1550100D01*
X+658749Y+1719037D01*
X+739979Y+1800267D01*
X+793359Y+1800267D01*
X+793800Y+1800267D01*
X+821358Y+1800267D01*
X+947181Y+1906589D02*
X+840859Y+1800267D01*
X+821358Y+1800267D01*
X+793800Y+1800267D02*
X+793580Y+1800488D01*
X+793359Y+1800267D01*
X+714877Y+1514734D02*
X+714877Y+1445083D01*
X+716535Y+1443425D01*
X+1200000Y+1891259D02*
X+1258086Y+1833173D01*
X+1258086Y+1779469D01*
X+1409449Y+1628107D01*
X+1409449Y+1614742D01*
X+1409449Y+1584778D01*
X+1409449Y+1443425D01*
X+401304Y+1972563D02*
X+440945Y+1932878D01*
X+205000Y+2306259D02*
X+205000Y+2168868D01*
X+401304Y+1972563D01*
X+440945Y+1932923D01*
X+440945Y+1932878D01*
X+471266Y+1902524D02*
X+471277Y+1902513D01*
X+498752Y+1875038D01*
X+498752Y+1740643D01*
X+498752Y+1554067D01*
X+440945Y+1496259D01*
X+440000Y+1495315D01*
X+440000Y+1436259D01*
X+440945Y+1496259D02*
X+440945Y+1443425D01*
X+440945Y+1932878D02*
X+471266Y+1902524D01*
X+471277Y+1902513D02*
X+478771Y+1895011D01*
X+1887500Y+2978759D02*
X+1887500Y+3003553D01*
X+1937500Y+3053553D01*
X+1937500Y+3078759D01*
X+1812500Y+3078759D02*
X+1858074Y+3124334D01*
X+1858074Y+3174334D01*
X+1862500Y+3178759D01*
X+1737500Y+3178759D02*
X+1783540Y+3224800D01*
X+1783540Y+3274800D01*
X+1787500Y+3278759D01*
X+1262500Y+3278759D02*
X+1337500Y+3203759D01*
X+1337500Y+3178759D01*
X+1337500Y+3153759D01*
X+1412500Y+3078759D01*
X+1487500Y+3003759D01*
X+1487500Y+2978759D01*
X+2337500Y+3078759D02*
X+2337500Y+3057389D01*
X+2230685Y+2950574D01*
X+2230685Y+2733328D01*
X+2234579Y+2729434D01*
X+2240157Y+2743425D01*
X+1125000Y+3291259D02*
X+1125000Y+3243182D01*
X+1107162Y+3225344D01*
X+1107162Y+2770121D01*
X+1133858Y+2743425D01*
X+75000Y+3491259D02*
X+75000Y+3466259D01*
X+150000Y+3391259D01*
X+150000Y+3356259D01*
X+180000Y+3326259D01*
X+225000Y+3291259D01*
X+225000Y+3266259D01*
X+300000Y+3191259D01*
X+996063Y+2841259D02*
X+996063Y+2743425D01*
X+1050000Y+3391259D02*
X+1034018Y+3375278D01*
X+996063Y+2841259D02*
X+1027163Y+2872359D01*
X+1027163Y+3046259D01*
X+1027163Y+3378422D01*
X+1047778Y+3399037D01*
X+1050000Y+3391259D01*
X+596850Y+3735000D02*
X+596850Y+3626259D01*
X+575000Y+3491259D02*
X+495000Y+3491259D01*
X+485000Y+3501259D01*
X+475000Y+3491259D01*
X+496850Y+3735000D02*
X+496850Y+3513110D01*
X+485000Y+3501259D01*
X+650000Y+3391259D02*
X+550000Y+3391259D01*
X+725000Y+3291259D02*
X+619444Y+3291259D01*
X+615833Y+3294870D01*
X+625000Y+3291259D01*
X+800000Y+3191259D02*
X+700000Y+3191259D01*
X+2377953Y+2743425D02*
X+2377953Y+2617306D01*
X+2380000Y+2615259D01*
X+2090000Y+2615259D02*
X+2090000Y+2731063D01*
X+2102362Y+2743425D01*
X+2090000Y+2615259D02*
X+2380000Y+2615259D01*
X+1675000Y+2615259D02*
X+1675000Y+2729448D01*
X+1688976Y+2743425D01*
X+1675000Y+2615259D02*
X+2090000Y+2615259D01*
X+1688976Y+2743425D02*
X+1694306Y+2748754D01*
X+1694306Y+2752509D01*
X+1271654Y+2743425D02*
X+1271654Y+2631913D01*
X+1255000Y+2615259D01*
X+1675000Y+2615259D01*
X+850000Y+2615259D02*
X+298223Y+2615259D01*
X+283889Y+2629593D01*
X+283889Y+3175148D01*
X+300000Y+3191259D01*
X+858268Y+2743425D02*
X+858268Y+2623527D01*
X+850000Y+2615259D01*
X+1255000Y+2615259D01*
X+1578487Y+2971259D02*
X+1578487Y+3034515D01*
X+1494204Y+3118797D01*
X+1494158Y+3118843D01*
X+1494158Y+3126268D01*
X+1429167Y+3191259D01*
X+1429167Y+3257093D01*
X+1317500Y+3368759D01*
X+1305000Y+3381259D02*
X+1317500Y+3368759D01*
X+1578487Y+2971259D02*
X+1578487Y+2938487D01*
X+1564455Y+2924455D01*
X+1564455Y+2803425D01*
X+1547244Y+2743425D01*
X+1584060Y+3232199D02*
X+1584060Y+3143310D01*
X+1688976Y+3038394D01*
X+1688976Y+2743425D01*
X+1262500Y+3278759D02*
X+1262500Y+3288481D01*
X+1210000Y+3340981D01*
X+1210000Y+3419315D01*
X+1263568Y+3472883D01*
X+1343377Y+3472883D01*
X+1584060Y+3232199D01*
X+1583931Y+3232070D01*
X+1583931Y+3218439D01*
X+2096850Y+3735000D02*
X+1996850Y+3735000D01*
X+2652323Y+2748582D02*
X+2657480Y+2743425D01*
X+2652323Y+2748582D02*
X+2630556Y+2770350D01*
X+2100000Y+3591259D02*
X+2100000Y+3731850D01*
X+2096850Y+3735000D01*
X+2075000Y+3466259D02*
X+2100000Y+3466259D01*
X+2117009Y+3483269D01*
X+2500000Y+3041259D02*
X+2425000Y+3116259D01*
X+2425000Y+3128688D01*
X+2349987Y+3203700D01*
X+2349987Y+3219947D01*
X+2280592Y+3289343D01*
X+2280592Y+3319687D01*
X+2117009Y+3483269D01*
X+2100000Y+3500278D01*
X+2100000Y+3591259D01*
X+2549657Y+3290917D02*
X+2475000Y+3365575D01*
X+2475000Y+3466259D01*
X+2549657Y+3290917D02*
X+2637795Y+3202779D01*
X+2637795Y+3041259D01*
X+330000Y+3601259D02*
X+330000Y+3482560D01*
X+531522Y+3281039D01*
X+531522Y+3255389D01*
X+578740Y+3208171D01*
X+578740Y+2743425D01*
X+1705000Y+3321889D02*
X+1705000Y+3321259D01*
X+1662500Y+3278759D01*
X+1705000Y+3381259D02*
X+1705000Y+3321889D01*
X+1396850Y+3735000D02*
X+1396850Y+3610354D01*
X+1685315Y+3321889D01*
X+1705000Y+3321889D01*
X+1496850Y+3735000D02*
X+1496850Y+3628464D01*
X+1652222Y+3473092D01*
X+1752484Y+3473092D01*
X+1804244Y+3421332D01*
X+1804244Y+3295504D01*
X+1787500Y+3278759D01*
X+1596850Y+3735000D02*
X+1596850Y+3646574D01*
X+1685447Y+3557978D01*
X+1780710Y+3557978D01*
X+1884989Y+3453698D01*
X+1884989Y+3201249D01*
X+1862500Y+3178759D01*
X+1696850Y+3735000D02*
X+1696850Y+3664685D01*
X+1720276Y+3641259D01*
X+1816201Y+3641259D01*
X+1970600Y+3486860D01*
X+1970600Y+3111860D01*
X+1937500Y+3078759D01*
X+596850Y+3626259D02*
X+596850Y+3607450D01*
X+596850Y+3603267D01*
X+670000Y+3530118D01*
X+670000Y+3421259D01*
X+643611Y+3394870D01*
X+650000Y+3391259D01*
X+725000Y+3291259D02*
X+780000Y+3346259D01*
X+780000Y+3538228D01*
X+696850Y+3621378D01*
X+696850Y+3735000D01*
X+796850Y+3735000D02*
X+796850Y+3639488D01*
X+865000Y+3571338D01*
X+865000Y+3256259D01*
X+800000Y+3191259D01*
X+2440945Y+3560488D02*
X+2495370Y+3560488D01*
X+2555964Y+3499894D01*
X+2555964Y+3401268D01*
X+2554993Y+3400297D01*
X+2717806Y+3237485D01*
X+2717806Y+3117441D01*
X+2717806Y+2871286D01*
X+2795276Y+2793816D01*
X+2795276Y+2743425D01*
X+2196850Y+3735000D02*
X+2196850Y+3644409D01*
X+2280772Y+3560488D01*
X+2440945Y+3560488D01*
X+2875240Y+2851915D02*
X+2885304Y+2841850D01*
X+2905556Y+2821599D01*
X+2905556Y+2723740D01*
X+2905556Y+2704055D01*
X+2905556Y+2821599D02*
X+2905556Y+2823724D01*
X+2905556Y+2704055D02*
X+2905556Y+2664176D01*
X+2876389Y+2635009D01*
X+2711806Y+2635009D01*
X+2652323Y+2694492D01*
X+2652323Y+2748582D01*
X+2905556Y+2823724D02*
X+2887429Y+2841850D01*
X+2885304Y+2841850D01*
X+2884036Y+2841850D01*
X+2875240Y+2850646D01*
X+2875240Y+2851915D01*
X+2832500Y+3573759D02*
X+2768469Y+3573759D01*
X+2710046Y+3632181D01*
X+2710046Y+3732330D01*
X+2711614Y+3733897D01*
X+2335000Y+3640480D02*
X+2296850Y+3678630D01*
X+2296850Y+3735000D01*
X+2875240Y+2851915D02*
X+2797806Y+2929348D01*
X+2797806Y+3270616D01*
X+2635959Y+3432463D01*
X+2635959Y+3533021D01*
X+2528500Y+3640480D01*
X+2335000Y+3640480D01*
X+2325780Y+3640480D01*
X+2965802Y+2938945D02*
X+2972441Y+2945583D01*
X+2972441Y+3001259D01*
X+2377953Y+2743425D02*
X+2377953Y+2861259D01*
X+2377953Y+2919212D01*
X+2500000Y+3041259D01*
X+2972441Y+3727677D02*
X+2972441Y+3001259D01*
X+2972441Y+2945583D02*
X+2972441Y+2879804D01*
X+2990000Y+2862245D01*
X+2179115Y+3012144D02*
X+2148642Y+2981671D01*
X+2148642Y+2981671D01*
X+1964567Y+2793503D02*
X+1964567Y+2771259D01*
X+1964567Y+2743425D02*
X+1964567Y+2771259D01*
X+2148642Y+2981671D02*
X+2148642Y+2981671D01*
X+2179115Y+3012144D01*
X+2245000Y+3078029D01*
X+2245000Y+3161259D01*
X+2262500Y+3178759D01*
X+2187500Y+3266259D02*
X+2187500Y+3236297D01*
X+2187500Y+3236296D01*
X+2137556Y+3186352D01*
X+2137556Y+3083704D01*
X+1910112Y+2856259D01*
X+1885000Y+2856259D01*
X+1826772Y+2798031D01*
X+1826111Y+2797371D01*
X+1826111Y+2730519D01*
X+2187500Y+3278759D02*
X+2187500Y+3266259D01*
X+2187500Y+3236296D01*
X+2187500Y+3236297D01*
X+1826772Y+2798031D02*
X+1826772Y+2743425D01*
X+2016162Y+2845098D02*
X+2022496Y+2851431D01*
X+2148642Y+2977578D01*
X+2160425Y+2989361D01*
X+2160425Y+2993433D01*
X+2165051Y+2998059D01*
X+2148642Y+2981671D02*
X+2148642Y+2977578D01*
X+2016162Y+2845098D02*
X+1964567Y+2793503D01*
X+947181Y+3306259D02*
X+947181Y+3206589D01*
X+975000Y+3491259D02*
X+947181Y+3463441D01*
X+947181Y+3306259D01*
X+716535Y+2743425D02*
X+716535Y+2813076D01*
X+714877Y+2814734D01*
X+686500Y+2843111D01*
X+665738Y+2843111D01*
X+658749Y+2850100D01*
X+658749Y+3019037D01*
X+739979Y+3100267D01*
X+793359Y+3100267D01*
X+793800Y+3100267D01*
X+821358Y+3100267D01*
X+947181Y+3206589D02*
X+840859Y+3100267D01*
X+821358Y+3100267D01*
X+793800Y+3100267D02*
X+793580Y+3100488D01*
X+793359Y+3100267D01*
X+714877Y+2814734D02*
X+714877Y+2745083D01*
X+716535Y+2743425D01*
X+1200000Y+3191259D02*
X+1258086Y+3133173D01*
X+1258086Y+3079469D01*
X+1409449Y+2928107D01*
X+1409449Y+2914742D01*
X+1409449Y+2884778D01*
X+1409449Y+2743425D01*
X+401304Y+3272563D02*
X+440945Y+3232878D01*
X+205000Y+3606259D02*
X+205000Y+3468868D01*
X+401304Y+3272563D01*
X+440945Y+3232923D01*
X+440945Y+3232878D01*
X+471266Y+3202524D02*
X+471277Y+3202513D01*
X+498752Y+3175038D01*
X+498752Y+3040643D01*
X+498752Y+2854067D01*
X+440945Y+2796259D01*
X+440000Y+2795315D01*
X+440000Y+2736259D01*
X+440945Y+2796259D02*
X+440945Y+2743425D01*
X+440945Y+3232878D02*
X+471266Y+3202524D01*
X+471277Y+3202513D02*
X+478771Y+3195011D01*
D11*
X+2377953Y+295000D03*
X+2965802Y+372685D03*
X+2377953Y+1561259D03*
X+2965802Y+1638945D03*
X+2377953Y+2861259D03*
X+2965802Y+2938945D03*
D10*
X+50063Y+1015000D02*
X+112279Y+1015000D01*
X+120000Y+1007278D01*
X+120000Y+1083741D01*
X+50063Y+1083741D01*
X+50063Y+1015000D01*
X+2027169Y+977169D02*
X+2033100Y+971237D01*
X+2041863Y+980000D01*
X+2108137Y+980000D01*
X+2155000Y+933137D01*
X+2155000Y+866863D01*
X+2108137Y+820000D01*
X+2050600Y+820000D01*
X+2050600Y+543624D01*
X+2057556Y+550581D01*
X+2057556Y+653230D01*
X+2097500Y+693174D01*
X+2097500Y+749779D01*
X+2150221Y+802500D01*
X+2224779Y+802500D01*
X+2277500Y+749779D01*
X+2277500Y+702500D01*
X+2299779Y+702500D01*
X+2352500Y+649779D01*
X+2352500Y+602500D01*
X+2374779Y+602500D01*
X+2427500Y+549779D01*
X+2427500Y+475221D01*
X+2417499Y+465220D01*
X+2417499Y+457992D01*
X+2310685Y+351178D01*
X+2310685Y+282165D01*
X+2335453Y+282165D01*
X+2335453Y+312604D01*
X+2360349Y+337500D01*
X+2395557Y+337500D01*
X+2420453Y+312604D01*
X+2420453Y+282165D01*
X+2595494Y+282165D01*
X+2597419Y+284089D01*
X+2637806Y+284089D01*
X+2637806Y+395000D01*
X+2604658Y+395000D01*
X+2594855Y+404804D01*
X+2567599Y+404804D01*
X+2567599Y+432060D01*
X+2561966Y+437693D01*
X+2529076Y+404804D01*
X+2470924Y+404804D01*
X+2429804Y+445924D01*
X+2429804Y+504076D01*
X+2470924Y+545196D01*
X+2529076Y+545196D01*
X+2557796Y+516477D01*
X+2557796Y+603383D01*
X+2395000Y+766179D01*
X+2395000Y+914229D01*
X+2247635Y+914229D01*
X+2116851Y+1045013D01*
X+2116851Y+1083741D01*
X+1920596Y+1083741D01*
X+2027169Y+977169D01*
X+881850Y+1101365D02*
X+945000Y+1038215D01*
X+945000Y+1015000D01*
X+1012279Y+1015000D01*
X+1065000Y+962279D01*
X+1065000Y+915000D01*
X+1087279Y+915000D01*
X+1100528Y+901751D01*
X+1112129Y+898745D01*
X+1118884Y+883394D01*
X+1140000Y+862279D01*
X+1140000Y+815000D01*
X+1162279Y+815000D01*
X+1200000Y+777279D01*
X+1215000Y+792279D01*
X+1215000Y+852279D01*
X+1267721Y+905000D01*
X+1342279Y+905000D01*
X+1395000Y+852279D01*
X+1395000Y+838137D01*
X+1509167Y+723970D01*
X+1509167Y+658136D01*
X+1574158Y+593145D01*
X+1574158Y+585720D01*
X+1658486Y+501393D01*
X+1658486Y+339091D01*
X+1644454Y+325059D01*
X+1644454Y+282165D01*
X+1764028Y+282165D01*
X+1827292Y+345429D01*
X+1797500Y+375221D01*
X+1797500Y+422500D01*
X+1775221Y+422500D01*
X+1722500Y+475221D01*
X+1722500Y+522500D01*
X+1700221Y+522500D01*
X+1647500Y+575221D01*
X+1647500Y+622500D01*
X+1625221Y+622500D01*
X+1572500Y+675221D01*
X+1572500Y+749779D01*
X+1575265Y+752544D01*
X+1316851Y+1010958D01*
X+1316851Y+1083741D01*
X+911851Y+1083741D01*
X+911851Y+1174307D01*
X+881850Y+1174307D01*
X+881850Y+1101365D01*
X+50063Y+49000D02*
X+2618420Y+49000D01*
X+2595254Y+72166D01*
X+335945Y+72166D01*
X+335945Y+282165D01*
X+379973Y+282165D01*
X+418752Y+320944D01*
X+418752Y+575633D01*
X+398771Y+595614D01*
X+406724Y+587665D01*
X+391266Y+603128D01*
X+390000Y+604400D01*
X+390000Y+587721D01*
X+337279Y+535000D01*
X+262721Y+535000D01*
X+210000Y+587721D01*
X+210000Y+635000D01*
X+187721Y+635000D01*
X+135000Y+687721D01*
X+135000Y+735000D01*
X+112721Y+735000D01*
X+60000Y+787721D01*
X+60000Y+835000D01*
X+50063Y+835000D01*
X+50063Y+49000D01*
X+2796614Y+1092491D02*
X+2801605Y+1087500D01*
X+2865637Y+1087500D01*
X+2912500Y+1040637D01*
X+2912500Y+974363D01*
X+2865637Y+927500D01*
X+2735332Y+927500D01*
X+2715959Y+946873D01*
X+2715959Y+899340D01*
X+2877806Y+737493D01*
X+2877806Y+396226D01*
X+2918441Y+355590D01*
X+2920566Y+355590D01*
X+2938693Y+337464D01*
X+2985555Y+290601D01*
X+2985555Y+64780D01*
X+2969774Y+49000D01*
X+2996000Y+49000D01*
X+2996000Y+342780D01*
X+2983406Y+330185D01*
X+2948198Y+330185D01*
X+2923302Y+355081D01*
X+2923302Y+390289D01*
X+2948198Y+415185D01*
X+2983406Y+415185D01*
X+2996000Y+402591D01*
X+2996000Y+1076418D01*
X+2887441Y+1076418D01*
X+2887441Y+1174307D01*
X+2796614Y+1174307D01*
X+2796614Y+1092491D01*
X+897428Y+477440D02*
X+873996Y+454008D01*
X+773116Y+454008D01*
X+738749Y+419641D01*
X+738749Y+337739D01*
X+748014Y+328474D01*
X+794323Y+282165D01*
X+916063Y+282165D01*
X+916063Y+308137D01*
X+947163Y+339237D01*
X+947163Y+527175D01*
X+897428Y+477440D01*
X+1187161Y+282165D02*
X+1329449Y+282165D01*
X+1329449Y+328711D01*
X+1187161Y+470998D01*
X+1187161Y+282165D01*
D12*
X+2096850Y+1083741D02*
X+2096850Y+1168740D01*
X+1996850Y+1083741D02*
X+1996850Y+1168740D01*
X+210000Y+625000D02*
X+300000Y+625000D01*
X+300000Y+535000D02*
X+300000Y+625000D01*
X+135000Y+725000D02*
X+225000Y+725000D01*
X+60000Y+825000D02*
X+150000Y+825000D01*
X+75000Y+1015000D02*
X+75000Y+925000D01*
X+2377953Y+72166D02*
X+2377953Y+177165D01*
X+2102362Y+72166D02*
X+2102362Y+177165D01*
X+1688976Y+72166D02*
X+1688976Y+177165D01*
X+1688976Y+282165D02*
X+1688976Y+177165D01*
X+1271654Y+72166D02*
X+1271654Y+177165D01*
X+1271654Y+282165D02*
X+1271654Y+177165D01*
X+858268Y+72166D02*
X+858268Y+177165D01*
X+858268Y+282165D02*
X+858268Y+177165D01*
X+2429804Y+475000D02*
X+2500000Y+475000D01*
X+2500000Y+404804D02*
X+2500000Y+475000D01*
X+2500000Y+545196D02*
X+2500000Y+475000D01*
X+2155000Y+900000D02*
X+2075000Y+900000D01*
X+2075000Y+820000D02*
X+2075000Y+900000D01*
X+2075000Y+980000D02*
X+2075000Y+900000D01*
X+2887441Y+1161417D02*
X+2972441Y+1161417D01*
X+2972441Y+1076418D02*
X+2972441Y+1161417D01*
D10*
X+50063Y+2281259D02*
X+112279Y+2281259D01*
X+120000Y+2273538D01*
X+120000Y+2350000D01*
X+50063Y+2350000D01*
X+50063Y+2281259D01*
X+2027169Y+2243428D02*
X+2033100Y+2237496D01*
X+2041863Y+2246259D01*
X+2108137Y+2246259D01*
X+2155000Y+2199396D01*
X+2155000Y+2133122D01*
X+2108137Y+2086260D01*
X+2050600Y+2086260D01*
X+2050600Y+1809884D01*
X+2057556Y+1816840D01*
X+2057556Y+1919489D01*
X+2097500Y+1959433D01*
X+2097500Y+2016039D01*
X+2150221Y+2068759D01*
X+2224779Y+2068759D01*
X+2277500Y+2016039D01*
X+2277500Y+1968759D01*
X+2299779Y+1968759D01*
X+2352500Y+1916039D01*
X+2352500Y+1868759D01*
X+2374779Y+1868759D01*
X+2427500Y+1816039D01*
X+2427500Y+1741480D01*
X+2417499Y+1731480D01*
X+2417499Y+1724252D01*
X+2310685Y+1617437D01*
X+2310685Y+1548424D01*
X+2335453Y+1548424D01*
X+2335453Y+1578863D01*
X+2360349Y+1603759D01*
X+2395557Y+1603759D01*
X+2420453Y+1578863D01*
X+2420453Y+1548424D01*
X+2595494Y+1548424D01*
X+2597419Y+1550349D01*
X+2637806Y+1550349D01*
X+2637806Y+1661260D01*
X+2604658Y+1661260D01*
X+2594855Y+1671063D01*
X+2567599Y+1671063D01*
X+2567599Y+1698319D01*
X+2561966Y+1703952D01*
X+2529076Y+1671063D01*
X+2470924Y+1671063D01*
X+2429804Y+1712183D01*
X+2429804Y+1770336D01*
X+2470924Y+1811456D01*
X+2529076Y+1811456D01*
X+2557796Y+1782737D01*
X+2557796Y+1869643D01*
X+2395000Y+2032438D01*
X+2395000Y+2180488D01*
X+2247635Y+2180488D01*
X+2116851Y+2311272D01*
X+2116851Y+2350000D01*
X+1920596Y+2350000D01*
X+2027169Y+2243428D01*
X+881850Y+2367624D02*
X+945000Y+2304475D01*
X+945000Y+2281259D01*
X+1012279Y+2281259D01*
X+1065000Y+2228539D01*
X+1065000Y+2181259D01*
X+1087279Y+2181259D01*
X+1100528Y+2168010D01*
X+1112129Y+2165004D01*
X+1118884Y+2149654D01*
X+1140000Y+2128539D01*
X+1140000Y+2081259D01*
X+1162279Y+2081259D01*
X+1200000Y+2043538D01*
X+1215000Y+2058539D01*
X+1215000Y+2118539D01*
X+1267721Y+2171259D01*
X+1342279Y+2171259D01*
X+1395000Y+2118539D01*
X+1395000Y+2104396D01*
X+1509167Y+1990230D01*
X+1509167Y+1924396D01*
X+1574158Y+1859404D01*
X+1574158Y+1851980D01*
X+1658486Y+1767652D01*
X+1658486Y+1605350D01*
X+1644454Y+1591318D01*
X+1644454Y+1548424D01*
X+1764028Y+1548424D01*
X+1827292Y+1611688D01*
X+1797500Y+1641480D01*
X+1797500Y+1688760D01*
X+1775221Y+1688760D01*
X+1722500Y+1741480D01*
X+1722500Y+1788760D01*
X+1700221Y+1788760D01*
X+1647500Y+1841480D01*
X+1647500Y+1888760D01*
X+1625221Y+1888760D01*
X+1572500Y+1941480D01*
X+1572500Y+2016039D01*
X+1575265Y+2018803D01*
X+1316851Y+2277217D01*
X+1316851Y+2350000D01*
X+911851Y+2350000D01*
X+911851Y+2440567D01*
X+881850Y+2440567D01*
X+881850Y+2367624D01*
X+50063Y+1315259D02*
X+2618420Y+1315259D01*
X+2595254Y+1338425D01*
X+335945Y+1338425D01*
X+335945Y+1548424D01*
X+379973Y+1548424D01*
X+418752Y+1587203D01*
X+418752Y+1841893D01*
X+398771Y+1861874D01*
X+406725Y+1853924D01*
X+391266Y+1869387D01*
X+390000Y+1870660D01*
X+390000Y+1853980D01*
X+337279Y+1801260D01*
X+262721Y+1801260D01*
X+210000Y+1853980D01*
X+210000Y+1901260D01*
X+187721Y+1901260D01*
X+135000Y+1953980D01*
X+135000Y+2001260D01*
X+112721Y+2001260D01*
X+60000Y+2053980D01*
X+60000Y+2101260D01*
X+50063Y+2101260D01*
X+50063Y+1315259D01*
X+2796614Y+2358750D02*
X+2801605Y+2353759D01*
X+2865637Y+2353759D01*
X+2912500Y+2306896D01*
X+2912500Y+2240622D01*
X+2865637Y+2193760D01*
X+2735332Y+2193760D01*
X+2715959Y+2213133D01*
X+2715959Y+2165599D01*
X+2877806Y+2003753D01*
X+2877806Y+1662485D01*
X+2918441Y+1621850D01*
X+2920566Y+1621850D01*
X+2938693Y+1603723D01*
X+2985555Y+1556861D01*
X+2985555Y+1331040D01*
X+2969774Y+1315259D01*
X+2996000Y+1315259D01*
X+2996000Y+1609039D01*
X+2983406Y+1596445D01*
X+2948198Y+1596445D01*
X+2923302Y+1621341D01*
X+2923302Y+1656549D01*
X+2948198Y+1681445D01*
X+2983406Y+1681445D01*
X+2996000Y+1668851D01*
X+2996000Y+2342677D01*
X+2887441Y+2342677D01*
X+2887441Y+2440567D01*
X+2796614Y+2440567D01*
X+2796614Y+2358750D01*
X+897428Y+1743699D02*
X+873996Y+1720268D01*
X+773116Y+1720268D01*
X+738749Y+1685901D01*
X+738749Y+1603998D01*
X+748014Y+1594734D01*
X+794323Y+1548424D01*
X+916063Y+1548424D01*
X+916063Y+1574396D01*
X+947163Y+1605496D01*
X+947163Y+1793435D01*
X+897428Y+1743699D01*
X+1187161Y+1548424D02*
X+1329449Y+1548424D01*
X+1329449Y+1594970D01*
X+1187161Y+1737258D01*
X+1187161Y+1548424D01*
D12*
X+2096850Y+2350000D02*
X+2096850Y+2435000D01*
X+1996850Y+2350000D02*
X+1996850Y+2435000D01*
X+210000Y+1891259D02*
X+300000Y+1891259D01*
X+300000Y+1801260D02*
X+300000Y+1891259D01*
X+135000Y+1991259D02*
X+225000Y+1991259D01*
X+60000Y+2091259D02*
X+150000Y+2091259D01*
X+75000Y+2281259D02*
X+75000Y+2191259D01*
X+2377953Y+1338425D02*
X+2377953Y+1443425D01*
X+2102362Y+1338425D02*
X+2102362Y+1443425D01*
X+1688976Y+1338425D02*
X+1688976Y+1443425D01*
X+1688976Y+1548424D02*
X+1688976Y+1443425D01*
X+1271654Y+1338425D02*
X+1271654Y+1443425D01*
X+1271654Y+1548424D02*
X+1271654Y+1443425D01*
X+858268Y+1338425D02*
X+858268Y+1443425D01*
X+858268Y+1548424D02*
X+858268Y+1443425D01*
X+2429804Y+1741259D02*
X+2500000Y+1741259D01*
X+2500000Y+1671063D02*
X+2500000Y+1741259D01*
X+2500000Y+1811456D02*
X+2500000Y+1741259D01*
X+2155000Y+2166259D02*
X+2075000Y+2166259D01*
X+2075000Y+2086260D02*
X+2075000Y+2166259D01*
X+2075000Y+2246259D02*
X+2075000Y+2166259D01*
X+2887441Y+2427677D02*
X+2972441Y+2427677D01*
X+2972441Y+2342677D02*
X+2972441Y+2427677D01*
D10*
X+50063Y+3581259D02*
X+112279Y+3581259D01*
X+120000Y+3573538D01*
X+120000Y+3650000D01*
X+50063Y+3650000D01*
X+50063Y+3581259D01*
X+2027169Y+3543428D02*
X+2033100Y+3537496D01*
X+2041863Y+3546259D01*
X+2108137Y+3546259D01*
X+2155000Y+3499396D01*
X+2155000Y+3433122D01*
X+2108137Y+3386260D01*
X+2050600Y+3386260D01*
X+2050600Y+3109884D01*
X+2057556Y+3116840D01*
X+2057556Y+3219489D01*
X+2097500Y+3259433D01*
X+2097500Y+3316039D01*
X+2150221Y+3368759D01*
X+2224779Y+3368759D01*
X+2277500Y+3316039D01*
X+2277500Y+3268759D01*
X+2299779Y+3268759D01*
X+2352500Y+3216039D01*
X+2352500Y+3168759D01*
X+2374779Y+3168759D01*
X+2427500Y+3116039D01*
X+2427500Y+3041480D01*
X+2417499Y+3031480D01*
X+2417499Y+3024252D01*
X+2310685Y+2917437D01*
X+2310685Y+2848424D01*
X+2335453Y+2848424D01*
X+2335453Y+2878863D01*
X+2360349Y+2903759D01*
X+2395557Y+2903759D01*
X+2420453Y+2878863D01*
X+2420453Y+2848424D01*
X+2595494Y+2848424D01*
X+2597419Y+2850349D01*
X+2637806Y+2850349D01*
X+2637806Y+2961260D01*
X+2604658Y+2961260D01*
X+2594855Y+2971063D01*
X+2567599Y+2971063D01*
X+2567599Y+2998319D01*
X+2561966Y+3003952D01*
X+2529076Y+2971063D01*
X+2470924Y+2971063D01*
X+2429804Y+3012183D01*
X+2429804Y+3070336D01*
X+2470924Y+3111456D01*
X+2529076Y+3111456D01*
X+2557796Y+3082737D01*
X+2557796Y+3169643D01*
X+2395000Y+3332438D01*
X+2395000Y+3480488D01*
X+2247635Y+3480488D01*
X+2116851Y+3611272D01*
X+2116851Y+3650000D01*
X+1920596Y+3650000D01*
X+2027169Y+3543428D01*
X+881850Y+3667624D02*
X+945000Y+3604475D01*
X+945000Y+3581259D01*
X+1012279Y+3581259D01*
X+1065000Y+3528539D01*
X+1065000Y+3481259D01*
X+1087279Y+3481259D01*
X+1100528Y+3468010D01*
X+1112129Y+3465004D01*
X+1118884Y+3449654D01*
X+1140000Y+3428539D01*
X+1140000Y+3381259D01*
X+1162279Y+3381259D01*
X+1200000Y+3343538D01*
X+1215000Y+3358539D01*
X+1215000Y+3418539D01*
X+1267721Y+3471259D01*
X+1342279Y+3471259D01*
X+1395000Y+3418539D01*
X+1395000Y+3404396D01*
X+1509167Y+3290230D01*
X+1509167Y+3224396D01*
X+1574158Y+3159404D01*
X+1574158Y+3151980D01*
X+1658486Y+3067652D01*
X+1658486Y+2905350D01*
X+1644454Y+2891318D01*
X+1644454Y+2848424D01*
X+1764028Y+2848424D01*
X+1827292Y+2911688D01*
X+1797500Y+2941480D01*
X+1797500Y+2988760D01*
X+1775221Y+2988760D01*
X+1722500Y+3041480D01*
X+1722500Y+3088760D01*
X+1700221Y+3088760D01*
X+1647500Y+3141480D01*
X+1647500Y+3188760D01*
X+1625221Y+3188760D01*
X+1572500Y+3241480D01*
X+1572500Y+3316039D01*
X+1575265Y+3318803D01*
X+1316851Y+3577217D01*
X+1316851Y+3650000D01*
X+911851Y+3650000D01*
X+911851Y+3740567D01*
X+881850Y+3740567D01*
X+881850Y+3667624D01*
X+50063Y+2615259D02*
X+2618420Y+2615259D01*
X+2595254Y+2638425D01*
X+335945Y+2638425D01*
X+335945Y+2848424D01*
X+379973Y+2848424D01*
X+418752Y+2887203D01*
X+418752Y+3141893D01*
X+398771Y+3161874D01*
X+406725Y+3153924D01*
X+391266Y+3169387D01*
X+390000Y+3170660D01*
X+390000Y+3153980D01*
X+337279Y+3101260D01*
X+262721Y+3101260D01*
X+210000Y+3153980D01*
X+210000Y+3201260D01*
X+187721Y+3201260D01*
X+135000Y+3253980D01*
X+135000Y+3301260D01*
X+112721Y+3301260D01*
X+60000Y+3353980D01*
X+60000Y+3401260D01*
X+50063Y+3401260D01*
X+50063Y+2615259D01*
X+2796614Y+3658750D02*
X+2801605Y+3653759D01*
X+2865637Y+3653759D01*
X+2912500Y+3606896D01*
X+2912500Y+3540622D01*
X+2865637Y+3493760D01*
X+2735332Y+3493760D01*
X+2715959Y+3513133D01*
X+2715959Y+3465599D01*
X+2877806Y+3303753D01*
X+2877806Y+2962485D01*
X+2918441Y+2921850D01*
X+2920566Y+2921850D01*
X+2938693Y+2903723D01*
X+2985555Y+2856861D01*
X+2985555Y+2631040D01*
X+2969774Y+2615259D01*
X+2996000Y+2615259D01*
X+2996000Y+2909039D01*
X+2983406Y+2896445D01*
X+2948198Y+2896445D01*
X+2923302Y+2921341D01*
X+2923302Y+2956549D01*
X+2948198Y+2981445D01*
X+2983406Y+2981445D01*
X+2996000Y+2968851D01*
X+2996000Y+3642677D01*
X+2887441Y+3642677D01*
X+2887441Y+3740567D01*
X+2796614Y+3740567D01*
X+2796614Y+3658750D01*
X+897428Y+3043699D02*
X+873996Y+3020268D01*
X+773116Y+3020268D01*
X+738749Y+2985901D01*
X+738749Y+2903998D01*
X+748014Y+2894734D01*
X+794323Y+2848424D01*
X+916063Y+2848424D01*
X+916063Y+2874396D01*
X+947163Y+2905496D01*
X+947163Y+3093435D01*
X+897428Y+3043699D01*
X+1187161Y+2848424D02*
X+1329449Y+2848424D01*
X+1329449Y+2894970D01*
X+1187161Y+3037258D01*
X+1187161Y+2848424D01*
D12*
X+2096850Y+3650000D02*
X+2096850Y+3735000D01*
X+1996850Y+3650000D02*
X+1996850Y+3735000D01*
X+210000Y+3191259D02*
X+300000Y+3191259D01*
X+300000Y+3101260D02*
X+300000Y+3191259D01*
X+135000Y+3291259D02*
X+225000Y+3291259D01*
X+60000Y+3391259D02*
X+150000Y+3391259D01*
X+75000Y+3581259D02*
X+75000Y+3491259D01*
X+2377953Y+2638425D02*
X+2377953Y+2743425D01*
X+2102362Y+2638425D02*
X+2102362Y+2743425D01*
X+1688976Y+2638425D02*
X+1688976Y+2743425D01*
X+1688976Y+2848424D02*
X+1688976Y+2743425D01*
X+1271654Y+2638425D02*
X+1271654Y+2743425D01*
X+1271654Y+2848424D02*
X+1271654Y+2743425D01*
X+858268Y+2638425D02*
X+858268Y+2743425D01*
X+858268Y+2848424D02*
X+858268Y+2743425D01*
X+2429804Y+3041259D02*
X+2500000Y+3041259D01*
X+2500000Y+2971063D02*
X+2500000Y+3041259D01*
X+2500000Y+3111456D02*
X+2500000Y+3041259D01*
X+2155000Y+3466259D02*
X+2075000Y+3466259D01*
X+2075000Y+3386260D02*
X+2075000Y+3466259D01*
X+2075000Y+3546259D02*
X+2075000Y+3466259D01*
X+2887441Y+3727677D02*
X+2972441Y+3727677D01*
X+2972441Y+3642677D02*
X+2972441Y+3727677D01*
D13*
X+1696850Y+1168740D03*
X+1596850Y+1168740D03*
X+1496850Y+1168740D03*
X+1396850Y+1168740D03*
X+1296850Y+1168740D03*
X+1196850Y+1168740D03*
X+1096850Y+1168740D03*
X+996850Y+1168740D03*
X+796850Y+1168740D03*
X+696850Y+1168740D03*
X+596850Y+1168740D03*
X+496850Y+1168740D03*
X+396850Y+1168740D03*
X+296850Y+1168740D03*
X+196850Y+1168740D03*
X+96850Y+1168740D03*
X+2596850Y+1168740D03*
X+2496850Y+1168740D03*
X+2396850Y+1168740D03*
X+2296850Y+1168740D03*
X+2196850Y+1168740D03*
X+2096850Y+1168740D03*
X+1996850Y+1168740D03*
X+1896850Y+1168740D03*
D14*
X+1887500Y+412500D03*
X+1487500Y+412500D03*
X+1812500Y+512500D03*
X+1412500Y+512500D03*
X+1737500Y+612500D03*
X+1337500Y+612500D03*
X+1662500Y+712500D03*
X+1262500Y+712500D03*
X+2337500Y+512500D03*
X+1937500Y+512500D03*
X+2262500Y+612500D03*
X+1862500Y+612500D03*
X+2187500Y+712500D03*
X+1787500Y+712500D03*
X+1305000Y+815000D03*
X+1705000Y+815000D03*
X+700000Y+625000D03*
X+300000Y+625000D03*
X+625000Y+725000D03*
X+225000Y+725000D03*
X+550000Y+825000D03*
X+150000Y+825000D03*
X+475000Y+925000D03*
X+75000Y+925000D03*
X+1200000Y+625000D03*
X+800000Y+625000D03*
X+1125000Y+725000D03*
X+725000Y+725000D03*
X+1050000Y+825000D03*
X+650000Y+825000D03*
X+975000Y+925000D03*
X+575000Y+925000D03*
D15*
X+2795276Y+177165D03*
X+2657480Y+177165D03*
X+2519685Y+177165D03*
X+2377953Y+177165D03*
X+2240157Y+177165D03*
X+2102362Y+177165D03*
X+1964567Y+177165D03*
X+1826772Y+177165D03*
X+1688976Y+177165D03*
X+1547244Y+177165D03*
X+1409449Y+177165D03*
X+1271654Y+177165D03*
X+1133858Y+177165D03*
X+996063Y+177165D03*
X+858268Y+177165D03*
X+716535Y+177165D03*
X+578740Y+177165D03*
X+440945Y+177165D03*
D16*
X+2637795Y+475000D03*
D17*
X+2637795Y+475000D03*
D18*
X+2500000Y+475000D03*
D13*
X+2711614Y+1167638D03*
X+330000Y+1035000D03*
X+205000Y+1040000D03*
D19*
X+2832500Y+1007500D03*
X+2549657Y+724657D03*
X+2475000Y+900000D03*
X+2075000Y+900000D03*
D13*
X+2972441Y+1161417D03*
X+1696850Y+2435000D03*
X+1596850Y+2435000D03*
X+1496850Y+2435000D03*
X+1396850Y+2435000D03*
X+1296850Y+2435000D03*
X+1196850Y+2435000D03*
X+1096850Y+2435000D03*
X+996850Y+2435000D03*
X+796850Y+2435000D03*
X+696850Y+2435000D03*
X+596850Y+2435000D03*
X+496850Y+2435000D03*
X+396850Y+2435000D03*
X+296850Y+2435000D03*
X+196850Y+2435000D03*
X+96850Y+2435000D03*
X+2596850Y+2435000D03*
X+2496850Y+2435000D03*
X+2396850Y+2435000D03*
X+2296850Y+2435000D03*
X+2196850Y+2435000D03*
X+2096850Y+2435000D03*
X+1996850Y+2435000D03*
X+1896850Y+2435000D03*
D14*
X+1887500Y+1678759D03*
X+1487500Y+1678759D03*
X+1812500Y+1778759D03*
X+1412500Y+1778759D03*
X+1737500Y+1878759D03*
X+1337500Y+1878759D03*
X+1662500Y+1978759D03*
X+1262500Y+1978759D03*
X+2337500Y+1778759D03*
X+1937500Y+1778759D03*
X+2262500Y+1878759D03*
X+1862500Y+1878759D03*
X+2187500Y+1978759D03*
X+1787500Y+1978759D03*
X+1305000Y+2081259D03*
X+1705000Y+2081259D03*
X+700000Y+1891259D03*
X+300000Y+1891259D03*
X+625000Y+1991259D03*
X+225000Y+1991259D03*
X+550000Y+2091259D03*
X+150000Y+2091259D03*
X+475000Y+2191259D03*
X+75000Y+2191259D03*
X+1200000Y+1891259D03*
X+800000Y+1891259D03*
X+1125000Y+1991259D03*
X+725000Y+1991259D03*
X+1050000Y+2091259D03*
X+650000Y+2091259D03*
X+975000Y+2191259D03*
X+575000Y+2191259D03*
D15*
X+2795276Y+1443425D03*
X+2657480Y+1443425D03*
X+2519685Y+1443425D03*
X+2377953Y+1443425D03*
X+2240157Y+1443425D03*
X+2102362Y+1443425D03*
X+1964567Y+1443425D03*
X+1826772Y+1443425D03*
X+1688976Y+1443425D03*
X+1547244Y+1443425D03*
X+1409449Y+1443425D03*
X+1271654Y+1443425D03*
X+1133858Y+1443425D03*
X+996063Y+1443425D03*
X+858268Y+1443425D03*
X+716535Y+1443425D03*
X+578740Y+1443425D03*
X+440945Y+1443425D03*
D16*
X+2637795Y+1741259D03*
D17*
X+2637795Y+1741259D03*
D18*
X+2500000Y+1741259D03*
D13*
X+2711614Y+2433897D03*
X+330000Y+2301259D03*
X+205000Y+2306259D03*
D19*
X+2832500Y+2273759D03*
X+2549657Y+1990917D03*
X+2475000Y+2166259D03*
X+2075000Y+2166259D03*
D13*
X+2972441Y+2427677D03*
X+1696850Y+3735000D03*
X+1596850Y+3735000D03*
X+1496850Y+3735000D03*
X+1396850Y+3735000D03*
X+1296850Y+3735000D03*
X+1196850Y+3735000D03*
X+1096850Y+3735000D03*
X+996850Y+3735000D03*
X+796850Y+3735000D03*
X+696850Y+3735000D03*
X+596850Y+3735000D03*
X+496850Y+3735000D03*
X+396850Y+3735000D03*
X+296850Y+3735000D03*
X+196850Y+3735000D03*
X+96850Y+3735000D03*
X+2596850Y+3735000D03*
X+2496850Y+3735000D03*
X+2396850Y+3735000D03*
X+2296850Y+3735000D03*
X+2196850Y+3735000D03*
X+2096850Y+3735000D03*
X+1996850Y+3735000D03*
X+1896850Y+3735000D03*
D14*
X+1887500Y+2978759D03*
X+1487500Y+2978759D03*
X+1812500Y+3078759D03*
X+1412500Y+3078759D03*
X+1737500Y+3178759D03*
X+1337500Y+3178759D03*
X+1662500Y+3278759D03*
X+1262500Y+3278759D03*
X+2337500Y+3078759D03*
X+1937500Y+3078759D03*
X+2262500Y+3178759D03*
X+1862500Y+3178759D03*
X+2187500Y+3278759D03*
X+1787500Y+3278759D03*
X+1305000Y+3381259D03*
X+1705000Y+3381259D03*
X+700000Y+3191259D03*
X+300000Y+3191259D03*
X+625000Y+3291259D03*
X+225000Y+3291259D03*
X+550000Y+3391259D03*
X+150000Y+3391259D03*
X+475000Y+3491259D03*
X+75000Y+3491259D03*
X+1200000Y+3191259D03*
X+800000Y+3191259D03*
X+1125000Y+3291259D03*
X+725000Y+3291259D03*
X+1050000Y+3391259D03*
X+650000Y+3391259D03*
X+975000Y+3491259D03*
X+575000Y+3491259D03*
D15*
X+2795276Y+2743425D03*
X+2657480Y+2743425D03*
X+2519685Y+2743425D03*
X+2377953Y+2743425D03*
X+2240157Y+2743425D03*
X+2102362Y+2743425D03*
X+1964567Y+2743425D03*
X+1826772Y+2743425D03*
X+1688976Y+2743425D03*
X+1547244Y+2743425D03*
X+1409449Y+2743425D03*
X+1271654Y+2743425D03*
X+1133858Y+2743425D03*
X+996063Y+2743425D03*
X+858268Y+2743425D03*
X+716535Y+2743425D03*
X+578740Y+2743425D03*
X+440945Y+2743425D03*
D16*
X+2637795Y+3041259D03*
D17*
X+2637795Y+3041259D03*
D18*
X+2500000Y+3041259D03*
D13*
X+2711614Y+3733897D03*
X+330000Y+3601259D03*
X+205000Y+3606259D03*
D19*
X+2832500Y+3573759D03*
X+2549657Y+3290917D03*
X+2475000Y+3466259D03*
X+2075000Y+3466259D03*
D13*
X+2972441Y+3727677D03*
D70*
X-3937Y-5000D02*
X+3050000Y-5000D01*
X+3050000Y+1228307D01*
X-3937Y+1228307D01*
X-3937Y-5000D01*
X-3937Y+1261259D02*
X+3050000Y+1261259D01*
X+3050000Y+2494567D01*
X-3937Y+2494567D01*
X-3937Y+1261259D01*
X-3937Y+2561259D02*
X+3050000Y+2561259D01*
X+3050000Y+3794567D01*
X-3937Y+3794567D01*
X-3937Y+2561259D01*
M02*
