M48
INCH,TZ
T01C0.0150
T02C0.0400
T03C0.0600
T04C0.0335
T05C0.0300
%
T01
X+23780Y+2950
X+29658Y+3727
X+23780Y+15613
X+29658Y+16389
X+23780Y+28613
X+29658Y+29389
T02
X+16969Y+11687
X+15969Y+11687
X+14969Y+11687
X+13969Y+11687
X+12969Y+11687
X+11969Y+11687
X+10969Y+11687
X+9969Y+11687
X+7969Y+11687
X+6969Y+11687
X+5969Y+11687
X+4969Y+11687
X+3969Y+11687
X+2969Y+11687
X+1969Y+11687
X+969Y+11687
X+25969Y+11687
X+24969Y+11687
X+23969Y+11687
X+22969Y+11687
X+21969Y+11687
X+20969Y+11687
X+19969Y+11687
X+18969Y+11687
X+18875Y+4125
X+14875Y+4125
X+18125Y+5125
X+14125Y+5125
X+17375Y+6125
X+13375Y+6125
X+16625Y+7125
X+12625Y+7125
X+23375Y+5125
X+19375Y+5125
X+22625Y+6125
X+18625Y+6125
X+21875Y+7125
X+17875Y+7125
X+13050Y+8150
X+17050Y+8150
X+7000Y+6250
X+3000Y+6250
X+6250Y+7250
X+2250Y+7250
X+5500Y+8250
X+1500Y+8250
X+4750Y+9250
X+750Y+9250
X+12000Y+6250
X+8000Y+6250
X+11250Y+7250
X+7250Y+7250
X+10500Y+8250
X+6500Y+8250
X+9750Y+9250
X+5750Y+9250
X+27116Y+11676
X+3300Y+10350
X+2050Y+10400
X+29724Y+11614
X+16969Y+24350
X+15969Y+24350
X+14969Y+24350
X+13969Y+24350
X+12969Y+24350
X+11969Y+24350
X+10969Y+24350
X+9969Y+24350
X+7969Y+24350
X+6969Y+24350
X+5969Y+24350
X+4969Y+24350
X+3969Y+24350
X+2969Y+24350
X+1969Y+24350
X+969Y+24350
X+25969Y+24350
X+24969Y+24350
X+23969Y+24350
X+22969Y+24350
X+21969Y+24350
X+20969Y+24350
X+19969Y+24350
X+18969Y+24350
X+18875Y+16788
X+14875Y+16788
X+18125Y+17788
X+14125Y+17788
X+17375Y+18788
X+13375Y+18788
X+16625Y+19788
X+12625Y+19788
X+23375Y+17788
X+19375Y+17788
X+22625Y+18788
X+18625Y+18788
X+21875Y+19788
X+17875Y+19788
X+13050Y+20813
X+17050Y+20813
X+7000Y+18913
X+3000Y+18913
X+6250Y+19913
X+2250Y+19913
X+5500Y+20913
X+1500Y+20913
X+4750Y+21913
X+750Y+21913
X+12000Y+18913
X+8000Y+18913
X+11250Y+19913
X+7250Y+19913
X+10500Y+20913
X+6500Y+20913
X+9750Y+21913
X+5750Y+21913
X+27116Y+24339
X+3300Y+23013
X+2050Y+23063
X+29724Y+24277
X+16969Y+37350
X+15969Y+37350
X+14969Y+37350
X+13969Y+37350
X+12969Y+37350
X+11969Y+37350
X+10969Y+37350
X+9969Y+37350
X+7969Y+37350
X+6969Y+37350
X+5969Y+37350
X+4969Y+37350
X+3969Y+37350
X+2969Y+37350
X+1969Y+37350
X+969Y+37350
X+25969Y+37350
X+24969Y+37350
X+23969Y+37350
X+22969Y+37350
X+21969Y+37350
X+20969Y+37350
X+19969Y+37350
X+18969Y+37350
X+18875Y+29788
X+14875Y+29788
X+18125Y+30788
X+14125Y+30788
X+17375Y+31788
X+13375Y+31788
X+16625Y+32788
X+12625Y+32788
X+23375Y+30788
X+19375Y+30788
X+22625Y+31788
X+18625Y+31788
X+21875Y+32788
X+17875Y+32788
X+13050Y+33813
X+17050Y+33813
X+7000Y+31913
X+3000Y+31913
X+6250Y+32913
X+2250Y+32913
X+5500Y+33913
X+1500Y+33913
X+4750Y+34913
X+750Y+34913
X+12000Y+31913
X+8000Y+31913
X+11250Y+32913
X+7250Y+32913
X+10500Y+33913
X+6500Y+33913
X+9750Y+34913
X+5750Y+34913
X+27116Y+37339
X+3300Y+36013
X+2050Y+36063
X+29724Y+37277
T03
X+27953Y+1772
X+26575Y+1772
X+25197Y+1772
X+23780Y+1772
X+22402Y+1772
X+21024Y+1772
X+19646Y+1772
X+18268Y+1772
X+16890Y+1772
X+15472Y+1772
X+14094Y+1772
X+12717Y+1772
X+11339Y+1772
X+9961Y+1772
X+8583Y+1772
X+7165Y+1772
X+5787Y+1772
X+4409Y+1772
X+27953Y+14434
X+26575Y+14434
X+25197Y+14434
X+23780Y+14434
X+22402Y+14434
X+21024Y+14434
X+19646Y+14434
X+18268Y+14434
X+16890Y+14434
X+15472Y+14434
X+14094Y+14434
X+12717Y+14434
X+11339Y+14434
X+9961Y+14434
X+8583Y+14434
X+7165Y+14434
X+5787Y+14434
X+4409Y+14434
X+27953Y+27434
X+26575Y+27434
X+25197Y+27434
X+23780Y+27434
X+22402Y+27434
X+21024Y+27434
X+19646Y+27434
X+18268Y+27434
X+16890Y+27434
X+15472Y+27434
X+14094Y+27434
X+12717Y+27434
X+11339Y+27434
X+9961Y+27434
X+8583Y+27434
X+7165Y+27434
X+5787Y+27434
X+4409Y+27434
T04
X+26378Y+4750
X+25000Y+4750
X+26378Y+17413
X+25000Y+17413
X+26378Y+30413
X+25000Y+30413
T05
X+28325Y+10075
X+25497Y+7247
X+24750Y+9000
X+20750Y+9000
X+28325Y+22738
X+25497Y+19909
X+24750Y+21663
X+20750Y+21663
X+28325Y+35738
X+25497Y+32909
X+24750Y+34663
X+20750Y+34663
M30
